<svg viewBox="0 0 512 512" xmlns="http://www.w3.org/2000/svg"><path d="m256 0c-140.609375 0-256 115.390625-256 256s115.390625 256 256 256 256-115.390625 256-256-115.390625-256-256-256zm105 241 4.378906.25c31.628906 2.769531 55.621094 28.503906 55.621094 59.75 0 33.089844-26.910156 60-60 60-52.734375 0-70.003906-49.027344-85.253906-92.269531-19.21875-54.582031-34.1875-87.730469-79.746094-87.730469-41.351562 0-75 33.648438-75 75s33.648438 75 75 75c20.039062 0 38.863281-7.808594 53.027344-21.972656l21.210937 21.210937c-19.820312 19.832031-46.1875 30.761719-74.238281 30.761719-57.890625 0-105-47.109375-105-105s47.109375-105 105-105c70.078125 0 91.128906 59.75 108.046875 107.753906 15.777344 44.796875 26.96875 72.246094 56.953125 72.246094 16.539062 0 30-13.460938 30-30s-13.460938-30-30-30c-33.089844 0-60-26.910156-60-60s26.910156-60 60-60 60 26.910156 60 60h-30c0-16.539062-13.460938-30-30-30s-30 13.460938-30 30 13.460938 30 30 30zm0 0"/></svg>